# xmcd CD database file
#
# Track frame offsets:
#	150
#	14325
#	32550
#	52725
#	64200
#	84375
#	97500
#	115875
#	139200
#	160575
#	170700
#	180825
#	199350
#	214425
#
# Disc length: 3145 seconds
#
# Revision: 0
# Processed by: cddbd v1.5.2PL0 Copyright (c) Steve Scherf et al.
# Submitted via: CDex 1.70beta2
#
DISCID=b30c470e
DTITLE=Louis Armstrong and the Dukes of Dixieland - Disc 1
DYEAR=1959
DGENRE=Jazz
TTITLE0=Bourbon Street Parade 
TTITLE1=Back O’ Town Blues 
TTITLE2=Sweethearts On Parade 
TTITLE3=Dippermouth Blues 
TTITLE4=Riverside Blues 
TTITLE5=Bill Bailey 
TTITLE6=Someday You’ll Be Sorry 
TTITLE7=Struttin’ With Some Barbecue 
TTITLE8=I Ain’t Gonna Give Nobody None Of My Jelly Roll 
TTITLE9=Cornet Chop Suey 
TTITLE10=The Bucket’s Got A Hole In It 
TTITLE11=Muskrat Ramble 
TTITLE12=Bye And Bye 
TTITLE13=Nobody Knows The Troubles I’ve Seen 
EXTD=YEAR: 1959
EXTT0=
EXTT1=
EXTT2=
EXTT3=
EXTT4=
EXTT5=
EXTT6=
EXTT7=
EXTT8=
EXTT9=
EXTT10=
EXTT11=
EXTT12=
EXTT13=
PLAYORDER=
